<svg xmlns="http://www.w3.org/2000/svg" viewBox="0 0 308.44 35.44"><defs><style>.cls-1{fill:#3a629f;}</style></defs><g id="레이어_2" data-name="레이어 2"><g id="레이어_1-2" data-name="레이어 1"><path class="cls-1" d="M83.17,28.41V14.34H79.48v3a6.1,6.1,0,0,0-3-2.47,10.61,10.61,0,0,0-3.32-.58,9.76,9.76,0,0,0-7.2,2.94A10,10,0,0,0,63,24.56a9.93,9.93,0,0,0,2.91,7.22,9.66,9.66,0,0,0,7.2,3,9.26,9.26,0,0,0,3.21-.62,7.28,7.28,0,0,0,3.16-2.54v2.79h4.17a16.33,16.33,0,0,1-.45-3.75Q83.17,28.58,83.17,28.41Zm-3.69-2.67a6.69,6.69,0,0,1-2.11,4,6.06,6.06,0,0,1-4.2,1.58,6.4,6.4,0,0,1-4.74-2,6.55,6.55,0,0,1-2-4.77,6.7,6.7,0,0,1,2-4.84,6.36,6.36,0,0,1,4.74-2,6.06,6.06,0,0,1,4.2,1.58,6.62,6.62,0,0,1,2.11,4Zm33.89-9.33a6.06,6.06,0,0,0-1.88-1.79c-2.48-1.46-6.3-.9-7.92,1.59a4.14,4.14,0,0,0-.48.78c-.18.34-.37.65-.54.94a8.08,8.08,0,0,0-2.17-2.81,6.1,6.1,0,0,0-3.23-1.21,8.1,8.1,0,0,0-2.55.48,6.33,6.33,0,0,0-2.75,2.14v-2.3h-4c.14,1.07.23,2.2.27,3.37s0,1.8,0,1.88V34.25h3.64V21a4.31,4.31,0,0,1,1.49-3,5,5,0,0,1,3.11-.77c1.5,0,2.44.59,2.81,1.68a11.4,11.4,0,0,1,.56,3.67V34.25h3.69V21A4.64,4.64,0,0,1,105,18a4.49,4.49,0,0,1,2.95-.8c1.53,0,2.43.57,2.7,1.6a14.59,14.59,0,0,1,.4,3.53V34.25h3.75V22a13.9,13.9,0,0,0-.5-3.51A6.84,6.84,0,0,0,113.37,16.41ZM8.13,2.19H0V34.51H8.13c.25,0,15,.75,15-16.16S8.38,2.18,8.13,2.19ZM8.08,30.93H3.75V5.77H8.08c12.39,0,11.61,12.59,11.61,12.59S20.47,30.93,8.08,30.93ZM36.55,13.75a7.24,7.24,0,0,0-2.38.3,5.58,5.58,0,0,0-2.65,2.11V14.23H27.61a22,22,0,0,1,.22,3.51V34.25h3.69V20a2.48,2.48,0,0,1,2-2.6,6.17,6.17,0,0,1,3.18-.23l1,.26,1.18-3.32a6.92,6.92,0,0,0-1.2-.29A8.38,8.38,0,0,0,36.55,13.75Zm23.12,8.13a10.44,10.44,0,0,0-3.29-5.75A9.43,9.43,0,0,0,50,13.8a9.07,9.07,0,0,0-7.15,3,10.79,10.79,0,0,0-2.75,7.49,10.91,10.91,0,0,0,2.75,7.49A9.12,9.12,0,0,0,50,34.89a8.26,8.26,0,0,0,4.68-1.34A14.35,14.35,0,0,0,58.33,30l-3.21-1.56a10.4,10.4,0,0,1-2.27,2.23,4.94,4.94,0,0,1-2.92.88,5.86,5.86,0,0,1-4.28-1.82,6.43,6.43,0,0,1-1.93-4.44H59.88a13,13,0,0,0-.08-2.25C59.72,22.31,59.67,21.92,59.67,21.88Zm-15.73.38a5.27,5.27,0,0,1,2.17-3.8,6.6,6.6,0,0,1,3.82-1.23,6.08,6.08,0,0,1,6.16,5ZM134,6.1H122.86V34.25h3.7V22h6.76a8.56,8.56,0,0,0,6.53-2.16,7.8,7.8,0,0,0,2.35-6.09,7.48,7.48,0,0,0-2.43-5.35A8.08,8.08,0,0,0,134,6.1Zm3.42,11.6A5.25,5.25,0,0,1,133.63,19h-7.15V9.08h5.89a7.55,7.55,0,0,1,4.37,1.22,4.36,4.36,0,0,1,1.93,3.43A5,5,0,0,1,137.37,17.7Zm123.47,5.84a12.81,12.81,0,0,0-2.46-1.17c-.75-.25-1.5-.52-2.25-.8a3.84,3.84,0,0,1-1.63-.86,1.62,1.62,0,0,1-.61-1.07,2.15,2.15,0,0,1,.51-1.5c.33-.39,1.14-.59,2.43-.59a3.15,3.15,0,0,1,1.77.35,1.91,1.91,0,0,1,.69,1l3-.69a6.21,6.21,0,0,0-2-2.78,5.66,5.66,0,0,0-3.65-1.12,6.73,6.73,0,0,0-4.87,1.55,4.7,4.7,0,0,0-1.49,3.8,4.74,4.74,0,0,0,1,2.89,6.05,6.05,0,0,0,2.14,1.6c.78.36,1.57.69,2.35,1s1.62.65,2.52,1.05a6,6,0,0,1,1.58,1.2,2.63,2.63,0,0,1,.61,1.85,1.78,1.78,0,0,1-1.15,1.87,7.23,7.23,0,0,1-2.81.37,4.36,4.36,0,0,1-2.52-.77,5.77,5.77,0,0,1-1.6-1.9l-3.16,1.44a9.39,9.39,0,0,0,2.57,3.32,7.2,7.2,0,0,0,4.82,1.5,8.85,8.85,0,0,0,5.21-1.52,5,5,0,0,0,2.17-4.31,6.22,6.22,0,0,0-1-3.46A6.79,6.79,0,0,0,260.84,23.54Zm33.58-5.24a12.21,12.21,0,0,0,1-5,12.76,12.76,0,0,0-3.63-9.2A12.59,12.59,0,0,0,274,4a12.86,12.86,0,0,0-3.48,9.27,12.27,12.27,0,0,0,1.61,6.14,16.14,16.14,0,0,0,4.79,5.13l2.47-2.45a11,11,0,0,1-4.24-3.87,10.23,10.23,0,0,1-1.41-5.46,9.13,9.13,0,0,1,2.59-6.67,8.73,8.73,0,0,1,6.52-2.65,9.14,9.14,0,0,1,9.27,9.27,10.77,10.77,0,0,1-.9,4.41A12.75,12.75,0,0,1,288.48,21L273.89,35.44h20.92V32.23H281.34l10.08-9.65A13.39,13.39,0,0,0,294.42,18.3Zm-72.9-4.55a7.27,7.27,0,0,0-2.38.3,5.56,5.56,0,0,0-2.64,2.11V14.23h-3.91a23.5,23.5,0,0,1,.21,3.51V34.25h3.7V20a2.48,2.48,0,0,1,2-2.6,6.2,6.2,0,0,1,3.19-.23l1,.26,1.18-3.32a6.92,6.92,0,0,0-1.2-.29A8.53,8.53,0,0,0,221.52,13.75Zm24,8.13a10.44,10.44,0,0,0-3.29-5.75,9.41,9.41,0,0,0-6.34-2.33,9.07,9.07,0,0,0-7.15,3A10.79,10.79,0,0,0,226,24.29a10.91,10.91,0,0,0,2.75,7.49,9.12,9.12,0,0,0,7.15,3.11,8.24,8.24,0,0,0,4.68-1.34A14.35,14.35,0,0,0,244.23,30L241,28.46a10.4,10.4,0,0,1-2.27,2.23,4.94,4.94,0,0,1-2.92.88,5.86,5.86,0,0,1-4.28-1.82,6.43,6.43,0,0,1-1.93-4.44h16.17a15.39,15.39,0,0,0-.08-2.25C245.62,22.31,245.57,21.92,245.57,21.88Zm-15.73.38a5.27,5.27,0,0,1,2.17-3.8,6.62,6.62,0,0,1,3.82-1.23,6.08,6.08,0,0,1,6.16,5Zm66.54-10.32,2.11,2,6.71-6.62V35.44h3.24V0ZM148.67,5.67a2.55,2.55,0,0,0-1.82.72,2.39,2.39,0,0,0-.75,1.79,2.52,2.52,0,0,0,.75,1.8,2.44,2.44,0,0,0,1.82.77,2.57,2.57,0,0,0,1.87-.77,2.43,2.43,0,0,0,.81-1.8,2.3,2.3,0,0,0-.81-1.79A2.69,2.69,0,0,0,148.67,5.67ZM146.8,34.25h3.74v-20H146.8ZM165.34,13.8a9.89,9.89,0,0,0-7.36,3,10.22,10.22,0,0,0-3,7.46,10.54,10.54,0,0,0,3,7.52,9.72,9.72,0,0,0,7.36,3.13,7.17,7.17,0,0,0,2-.29c.64-.2,1.32-.44,2-.73v-3.8a22,22,0,0,1-2.12.86,6,6,0,0,1-1.94.32,6.45,6.45,0,0,1-4.8-2.06,6.74,6.74,0,0,1-2-4.89,6.51,6.51,0,0,1,2-4.82,6.6,6.6,0,0,1,4.8-2,7.53,7.53,0,0,1,1.89.24,8.19,8.19,0,0,1,2.17,1V14.66a10.86,10.86,0,0,0-2-.64A9.14,9.14,0,0,0,165.34,13.8Zm38,12.47a6.11,6.11,0,0,1-1.64,3.48,5.19,5.19,0,0,1-3.66,1.44,5.47,5.47,0,0,1-3.83-1.52,4.85,4.85,0,0,1-1.42-3.56V14.23h-4.06a24,24,0,0,1,.37,5.57v6.63a7.78,7.78,0,0,0,2.65,5.68,8.8,8.8,0,0,0,6.35,2.56,14.48,14.48,0,0,0,5-1.55q3.48-1.54,4-7.28V20.06a48.87,48.87,0,0,1,.21-5.83h-4ZM180.6,7.81h-3.74v6.37H173v3.48h3.86V34.19h3.74V17.66h3.75V14.18H180.6Z"/></g></g></svg>