<svg id="그룹_34530" data-name="그룹 34530" xmlns="http://www.w3.org/2000/svg" xmlns:xlink="http://www.w3.org/1999/xlink" width="38.727" height="47.583" viewBox="0 0 38.727 47.583">
  <defs>
    <clipPath id="clip-path">
      <rect id="사각형_3977" data-name="사각형 3977" width="38.727" height="47.583" fill="none"/>
    </clipPath>
  </defs>
  <g id="그룹_34527" data-name="그룹 34527" transform="translate(0 0)" clip-path="url(#clip-path)">
    <path id="패스_11286" data-name="패스 11286" d="M776.548,1108.729l-6.019-1.223a.736.736,0,0,0-.833.455l-2.223,5.726a.683.683,0,0,1-1.236.08l-9.052-16.57,11.046-6.035,9.052,16.57a.683.683,0,0,1-.735,1" transform="translate(-740.099 -1066.539)" fill="#00bebe"/>
    <path id="패스_11287" data-name="패스 11287" d="M65.381,1108.729l6.019-1.223a.736.736,0,0,1,.833.455l2.223,5.726a.683.683,0,0,0,1.236.08l9.052-16.57L73.7,1091.162l-9.052,16.57a.683.683,0,0,0,.735,1" transform="translate(-63.103 -1066.539)" fill="#00bebe"/>
    <path id="패스_11288" data-name="패스 11288" d="M51.871,64.331a3.277,3.277,0,0,1-1.451-.337L48,62.811a2.027,2.027,0,0,0-1.78,0L43.8,63.994a3.306,3.306,0,0,1-4.375-1.422l-1.263-2.38a2.014,2.014,0,0,0-1.44-1.046l-2.654-.466a3.308,3.308,0,0,1-2.7-3.722l.377-2.668a2.014,2.014,0,0,0-.55-1.693l-1.873-1.936a3.308,3.308,0,0,1,0-4.6l1.873-1.936a2.014,2.014,0,0,0,.55-1.693l-.377-2.668a3.308,3.308,0,0,1,2.7-3.722l2.654-.466a2.014,2.014,0,0,0,1.44-1.046l1.263-2.38A3.306,3.306,0,0,1,43.8,28.73l2.421,1.183a2.027,2.027,0,0,0,1.78,0l2.421-1.183A3.306,3.306,0,0,1,54.8,30.151l1.263,2.38a2.014,2.014,0,0,0,1.44,1.046l2.654.466a3.308,3.308,0,0,1,2.7,3.722l-.377,2.668a2.014,2.014,0,0,0,.55,1.693L64.9,44.062a3.308,3.308,0,0,1,0,4.6L63.029,50.6a2.014,2.014,0,0,0-.55,1.693l.377,2.668a3.308,3.308,0,0,1-2.7,3.722l-2.654.466a2.014,2.014,0,0,0-1.44,1.046L54.8,62.573a3.3,3.3,0,0,1-2.924,1.758" transform="translate(-27.746 -27.752)" fill="#00bebe"/>
    <path id="패스_11289" data-name="패스 11289" d="M24.125,1.285A2.667,2.667,0,0,1,26.483,2.7l1.263,2.38a2.667,2.667,0,0,0,1.9,1.377l2.654.466a2.667,2.667,0,0,1,2.18,3L34.1,12.594a2.667,2.667,0,0,0,.724,2.228L36.7,16.759a2.667,2.667,0,0,1,0,3.709L34.822,22.4a2.667,2.667,0,0,0-.724,2.228l.377,2.668a2.667,2.667,0,0,1-2.18,3l-2.654.466a2.667,2.667,0,0,0-1.9,1.377l-1.263,2.38a2.666,2.666,0,0,1-3.528,1.146l-2.421-1.183a2.667,2.667,0,0,0-2.343,0L15.771,35.67a2.666,2.666,0,0,1-3.528-1.146l-1.263-2.38a2.667,2.667,0,0,0-1.9-1.377L6.432,30.3a2.667,2.667,0,0,1-2.18-3l.377-2.668A2.667,2.667,0,0,0,3.9,22.4L2.031,20.468a2.667,2.667,0,0,1,0-3.709L3.9,14.822a2.667,2.667,0,0,0,.724-2.228L4.251,9.926a2.667,2.667,0,0,1,2.18-3L9.085,6.46a2.667,2.667,0,0,0,1.9-1.377L12.244,2.7a2.666,2.666,0,0,1,3.528-1.146L18.192,2.74a2.667,2.667,0,0,0,2.343,0l2.421-1.183a2.657,2.657,0,0,1,1.17-.271m0-1.281a3.912,3.912,0,0,0-1.732.4L19.972,1.589a1.386,1.386,0,0,1-1.218,0L16.334.406A3.912,3.912,0,0,0,14.6,0a3.949,3.949,0,0,0-3.49,2.1L9.849,4.482a1.377,1.377,0,0,1-.985.716L6.21,5.664a3.949,3.949,0,0,0-3.227,4.442l.377,2.668a1.377,1.377,0,0,1-.376,1.158L1.111,15.868a3.949,3.949,0,0,0,0,5.491L2.984,23.3a1.377,1.377,0,0,1,.376,1.158l-.377,2.668A3.949,3.949,0,0,0,6.21,31.563l2.654.466a1.377,1.377,0,0,1,.985.716l1.263,2.38a3.947,3.947,0,0,0,5.222,1.7l2.421-1.183a1.386,1.386,0,0,1,1.218,0l2.421,1.183a3.912,3.912,0,0,0,1.732.4,3.949,3.949,0,0,0,3.49-2.1l1.263-2.38a1.377,1.377,0,0,1,.985-.716l2.654-.466a3.949,3.949,0,0,0,3.227-4.442l-.377-2.668a1.377,1.377,0,0,1,.376-1.158l1.873-1.936a3.949,3.949,0,0,0,0-5.491l-1.873-1.936a1.377,1.377,0,0,1-.376-1.158l.377-2.668a3.949,3.949,0,0,0-3.227-4.442L29.863,5.2a1.377,1.377,0,0,1-.985-.716L27.615,2.1A3.948,3.948,0,0,0,24.125,0" transform="translate(0 -0.004)" fill="#fff"/>
  </g>
</svg>
