<svg xmlns="http://www.w3.org/2000/svg" width="18.126" height="17.446" viewBox="0 0 18.126 17.446">
  <g id="패스_15" data-name="패스 15" transform="translate(-0.624 -0.809)" fill="#f52e38" fill-rule="evenodd">
    <path d="M 14.69468975067139 17.75544929504395 C 14.62719058990479 17.75544929504395 14.56033039093018 17.73807907104492 14.50133991241455 17.70520973205566 C 14.00306987762451 17.42806053161621 9.746299743652344 15.05718994140625 9.74629020690918 15.05717945098877 L 9.490389823913574 14.91465950012207 L 9.240920066833496 15.06818962097168 C 7.872550010681152 15.91032981872559 5.411800384521484 17.29336929321289 4.634000301361084 17.4194393157959 L 4.558120250701904 17.43173980712891 L 4.494596004486084 17.46367835998535 C 4.488814353942871 17.46521186828613 4.46997594833374 17.46938133239746 4.435770034790039 17.46938896179199 C 4.280110836029053 17.46939849853516 4.125921249389648 17.39128875732422 4.08682107925415 17.34230041503906 L 4.092280387878418 17.32126045227051 L 4.096120357513428 17.29648017883301 C 4.244920253753662 16.33514022827148 5.106110095977783 11.90711975097656 5.114789962768555 11.86250019073486 L 5.164960384368896 11.60468006134033 L 4.98114013671875 11.41706943511963 C 4.848120212554932 11.28131008148193 1.717910170555115 8.086969375610352 1.234610199928284 7.624679565429688 C 1.139950156211853 7.534139633178711 1.102420210838318 7.413819789886475 1.136660218238831 7.310679912567139 C 1.17477011680603 7.195879936218262 1.298100113868713 7.120090007781982 1.483930110931396 7.097269535064697 C 2.322910070419312 6.994279861450195 6.711830139160156 6.456289768218994 6.711830139160156 6.456289768218994 L 6.972959995269775 6.424279689788818 L 7.094470024108887 6.190939903259277 C 7.117395401000977 6.146926403045654 9.372881889343262 1.815723061561584 9.610724449157715 1.362883567810059 C 9.631572723388672 1.346021413803101 9.708003997802734 1.309369802474976 9.823480606079102 1.309369802474976 C 9.949950218200684 1.309369802474976 10.02519989013672 1.354039788246155 10.03180980682373 1.368229746818542 C 10.25179004669189 1.840189814567566 12.32958030700684 6.310739994049072 12.32958030700684 6.310739994049072 L 12.44058036804199 6.549569606781006 L 12.70032024383545 6.593119621276855 C 15.03812313079834 6.985101222991943 17.64298820495605 7.46731424331665 17.97809982299805 7.599632740020752 L 18.08242988586426 7.652799606323242 L 18.20861053466797 7.649869918823242 L 18.2148494720459 7.649789810180664 C 18.22715950012207 7.649789810180664 18.23602676391602 7.650669097900391 18.24198913574219 7.651607990264893 C 18.26147270202637 7.702775478363037 18.24895095825195 7.849134922027588 18.16291046142578 7.929409980773926 C 17.7748908996582 8.29142951965332 14.20468044281006 11.62662982940674 14.20468044281006 11.62662982940674 L 14.01240062713623 11.80624008178711 L 14.05156993865967 12.06643009185791 C 14.05903053283691 12.11598968505859 14.79849052429199 17.02908897399902 14.87285041809082 17.62491989135742 C 14.87997055053711 17.68194961547852 14.86622047424316 17.69751930236816 14.8617000579834 17.70264053344727 C 14.83924007415771 17.72806930541992 14.77740001678467 17.75544929504395 14.69468975067139 17.75544929504395 Z" stroke="none"/>
    <path d="M 14.28165054321289 17.01067543029785 C 14.10967826843262 15.82416248321533 13.75853157043457 13.47862815856934 13.5571403503418 12.14087009429932 L 13.47879981994629 11.62049007415771 L 13.86334991455078 11.26124954223633 C 13.86334991455078 11.26124954223633 16.34162139892578 8.946114540100098 17.39311408996582 7.964108467102051 C 16.49835014343262 7.765156745910645 14.45572948455811 7.394431591033936 12.61764049530029 7.086229801177979 L 12.09815979003906 6.999129772186279 L 11.87616062164307 6.521469593048096 C 11.87616062164307 6.521469593048096 10.40270328521729 3.351194143295288 9.80617618560791 2.068522691726685 C 9.15863037109375 3.309688091278076 7.55724048614502 6.384825229644775 7.53794002532959 6.421879768371582 L 7.294919967651367 6.8885498046875 L 6.772670269012451 6.952569961547852 C 6.772670269012451 6.952569961547852 3.179847717285156 7.392973899841309 1.874241828918457 7.553132057189941 C 2.80219841003418 8.479086875915527 5.221588611602783 10.94804859161377 5.338280200958252 11.06713962554932 L 5.705930233001709 11.44235992431641 L 5.605590343475342 11.95800018310547 C 5.597960472106934 11.99723243713379 4.929975032806396 15.43178749084473 4.67039680480957 16.89934921264648 C 5.396257877349854 16.69745063781738 7.411139011383057 15.60707664489746 8.978870391845703 14.64235973358154 L 9.47782039642334 14.33533000946045 L 9.989580154418945 14.62036991119385 C 9.989588737487793 14.62036991119385 13.04492855072021 16.32208633422852 14.28165054321289 17.01067543029785 M 14.69468688964844 18.25544738769531 C 14.54808521270752 18.25544738769531 14.39584636688232 18.21879577636719 14.25800037384033 18.14200019836426 C 13.76000022888184 17.86499977111816 9.503000259399414 15.49399948120117 9.503000259399414 15.49399948120117 C 9.503000259399414 15.49399948120117 5.880000114440918 17.7239990234375 4.714000225067139 17.91300010681152 C 4.339999198913574 18.10099983215332 3.450000047683716 17.80599975585938 3.60200023651123 17.21999931335449 C 3.754000186920166 16.23799896240234 4.624000072479248 11.76700019836426 4.624000072479248 11.76700019836426 C 4.624000072479248 11.76700019836426 1.372000217437744 8.447999954223633 0.8890001773834229 7.985999584197998 C 0.406000167131424 7.523999691009521 0.5840001702308655 6.703999996185303 1.42300021648407 6.60099983215332 C 2.26200008392334 6.497999668121338 6.651000022888184 5.959999561309814 6.651000022888184 5.959999561309814 C 6.651000022888184 5.959999561309814 8.960000038146973 1.525999784469604 9.173000335693359 1.120999813079834 C 9.386998176574707 0.7140007615089417 10.26499938964844 0.6849983334541321 10.48500061035156 1.156999826431274 C 10.70499992370605 1.628999829292297 12.78299999237061 6.099999904632568 12.78299999237061 6.099999904632568 C 12.78299999237061 6.099999904632568 17.7810001373291 6.937999725341797 18.19700050354004 7.149999618530273 C 18.84298133850098 7.13502836227417 18.89200210571289 7.932999134063721 18.50399971008301 8.295000076293945 C 18.11599922180176 8.656999588012695 14.54600048065186 11.99199962615967 14.54600048065186 11.99199962615967 C 14.54600048065186 11.99199962615967 15.29300022125244 16.95400047302246 15.36900043487549 17.5629997253418 C 15.42400550842285 18.0037670135498 15.07878112792969 18.25544738769531 14.69468688964844 18.25544738769531 Z" stroke="none" fill="#d00"/>
  </g>
</svg>
