<?xml version="1.0" encoding="UTF-8"?>
<svg id="_레이어_2" data-name="레이어 2" xmlns="http://www.w3.org/2000/svg" viewBox="0 0 335.5 260.27">
  <defs>
    <style>
      .cls-1, .cls-2, .cls-3 {
        fill: #e668a2;
      }

      .cls-1, .cls-2, .cls-3, .cls-4 {
        stroke: #a5106d;
      }

      .cls-1, .cls-2, .cls-3, .cls-4, .cls-5, .cls-6, .cls-7 {
        stroke-width: 4px;
      }

      .cls-1, .cls-2, .cls-5 {
        stroke-miterlimit: 10;
      }

      .cls-2, .cls-3, .cls-4, .cls-6, .cls-7 {
        stroke-linecap: round;
      }

      .cls-3, .cls-4, .cls-6, .cls-7 {
        stroke-linejoin: round;
      }

      .cls-4, .cls-7 {
        fill: #fff;
      }

      .cls-5, .cls-6 {
        fill: #63bfb0;
      }

      .cls-5, .cls-6, .cls-7 {
        stroke: #068a71;
      }
    </style>
  </defs>
  <g id="_레이어_1-2" data-name="레이어 1">
    <g>
      <g>
        <path class="cls-7" d="M106.44,207.85v37.09c0,7.36,5.97,13.33,13.33,13.33h0c7.36,0,13.33-5.97,13.33-13.33v-37.09"/>
        <path class="cls-6" d="M83.52,115.6c.69-19.43,16.65-34.98,36.25-34.98,19.6,0,35.56,15.54,36.25,34.98h.03s0,73.71,0,73.71c0,10.24-8.3,18.54-18.54,18.54h-36.91c-9.45,0-17.11-7.66-17.11-17.11V115.6s.03,0,.03,0Z"/>
        <g>
          <path class="cls-6" d="M124.2,166.23v17.21c0,5.1,4.17,9.27,9.27,9.27h0c5.1,0,9.27-4.17,9.27-9.27v-39.68"/>
          <path class="cls-6" d="M142.73,127.19v-15.05c0-5.1-4.17-9.27-9.27-9.27h0c-5.1,0-9.27,4.17-9.27,9.27v41.1"/>
          <g>
            <path class="cls-6" d="M96.81,176.2v7.24c0,5.1,4.17,9.27,9.27,9.27h0c5.1,0,9.27-4.17,9.27-9.27v-55.97"/>
            <path class="cls-6" d="M115.35,117.64v-5.5c0-5.1-4.17-9.27-9.27-9.27h0c-5.1,0-9.27,4.17-9.27,9.27v49.31"/>
          </g>
        </g>
      </g>
      <g>
        <path class="cls-4" d="M227.61,207.85v37.09c0,7.36-5.97,13.33-13.33,13.33h0c-7.36,0-13.33-5.97-13.33-13.33v-37.09"/>
        <path class="cls-3" d="M250.52,115.6c-.69-19.43-16.65-34.98-36.25-34.98-19.6,0-35.56,15.54-36.25,34.98h-.03s0,73.71,0,73.71c0,10.24,8.3,18.54,18.54,18.54h36.91c9.45,0,17.11-7.66,17.11-17.11V115.6s-.03,0-.03,0Z"/>
        <g>
          <path class="cls-2" d="M209.85,166.23v17.21c0,5.1-4.17,9.27-9.27,9.27h0c-5.1,0-9.27-4.17-9.27-9.27v-39.68"/>
          <path class="cls-2" d="M191.31,127.19v-15.05c0-5.1,4.17-9.27,9.27-9.27h0c5.1,0,9.27,4.17,9.27,9.27v41.1"/>
          <g>
            <path class="cls-2" d="M237.23,176.2v7.24c0,5.1-4.17,9.27-9.27,9.27h0c-5.1,0-9.27-4.17-9.27-9.27v-55.97"/>
            <path class="cls-2" d="M218.7,117.64v-5.5c0-5.1,4.17-9.27,9.27-9.27h0c5.1,0,9.27,4.17,9.27,9.27v49.31"/>
          </g>
        </g>
      </g>
      <g>
        <path class="cls-5" d="M41.18,57.6c-.4,.69-1,1.35-1.81,1.98-.81,.63-1.79,1.15-2.94,1.58-1.54,.57-2.9,.85-4.07,.84-1.18,0-2.11-.42-2.8-1.26-3.19-3.91-5.87-7.14-8.04-9.7s-3.97-4.81-5.39-6.74l-.29,.11c.95,3.04,1.84,5.81,2.66,8.32,.82,2.51,1.62,4.96,2.42,7.34,.8,2.38,1.59,4.79,2.38,7.23,.79,2.44,1.64,5.13,2.56,8.07-.46,.39-1.1,.83-1.93,1.33-.83,.5-1.72,.92-2.68,1.28-1.88,.69-3.46,.91-4.76,.65-1.3-.26-2.24-1.18-2.82-2.77-.34-.91-.77-2.19-1.29-3.83-.52-1.64-1.11-3.52-1.76-5.66-.65-2.14-1.33-4.44-2.05-6.9-.72-2.47-1.45-4.97-2.19-7.51-.74-2.54-1.49-5.05-2.24-7.53-.75-2.48-1.43-4.78-2.05-6.9,.19-.67,.75-1.55,1.69-2.63,.94-1.08,2.47-2.01,4.58-2.79,2.26-.83,4.17-1.13,5.74-.88,1.56,.24,2.98,1.06,4.26,2.45,1.01,1.1,2.1,2.35,3.27,3.75,1.17,1.4,2.35,2.83,3.55,4.3,1.2,1.47,2.38,2.93,3.54,4.39,1.16,1.46,2.24,2.79,3.24,4.01l.36-.13c-.21-4.73-.38-9.32-.49-13.79-.12-4.46-.16-8.23-.15-11.29,.55-.58,1.3-1.19,2.24-1.81,.95-.62,2.04-1.16,3.29-1.62,2.16-.8,4.01-1.12,5.54-.98,1.53,.15,2.63,.78,3.32,1.89,.55,.89,1.3,2.28,2.27,4.16,.97,1.88,2.04,4.06,3.22,6.51,1.18,2.46,2.41,5.05,3.68,7.78,1.28,2.72,2.49,5.36,3.65,7.91,1.16,2.55,2.21,4.88,3.15,6.99s1.66,3.76,2.15,4.94c-.56,.7-1.21,1.31-1.95,1.82-.74,.52-1.73,1.01-2.98,1.47-1.59,.58-3.05,.8-4.39,.64-1.34-.16-2.37-1.06-3.09-2.71-2.39-5.45-4.5-10.48-6.33-15.08-1.83-4.6-3.37-8.36-4.61-11.29l-.36,.13c.17,2.23,.28,5.09,.33,8.56,.05,3.48,.18,7.94,.38,13.38Z"/>
        <path class="cls-5" d="M75.22,60.25c-2.34,.58-4.07,.58-5.18,.02-1.12-.57-1.94-1.9-2.45-3.99L57.57,15.92c.52-.23,1.27-.55,2.26-.96,.98-.4,2-.73,3.04-.99,2.24-.56,3.94-.58,5.09-.07,1.15,.51,2,1.85,2.55,4.04l10.01,40.37c-.51,.29-1.25,.61-2.21,.98-.96,.37-1.99,.69-3.09,.96Z"/>
        <path class="cls-5" d="M123.94,50.81c-1.16,.57-2.57,.98-4.24,1.24-1.72,.27-3.39,.24-4.99-.08-1.61-.32-3.07-1.39-4.39-3.21l-11.44-15.66c-1.11-1.49-2.16-2.98-3.14-4.49-.99-1.51-1.97-3.09-2.95-4.76l-.51,.23c.72,3,1.32,5.88,1.8,8.63,.48,2.75,.92,5.42,1.31,8l2.18,14.13c-.49,.18-1.22,.41-2.19,.69-.97,.28-1.98,.5-3.05,.67-2.28,.35-3.94,.21-4.97-.44s-1.71-1.98-2.02-4.01l-6.04-39.13c.47-.95,1.35-1.78,2.61-2.46,1.27-.69,2.66-1.15,4.18-1.38,1.77-.27,3.45-.25,5.03,.08,1.58,.33,3.02,1.37,4.34,3.14l11.53,15.72c1.11,1.49,2.16,2.99,3.14,4.49,.98,1.51,1.97,3.09,2.95,4.76l.29-.12c-.78-3.35-1.41-6.55-1.91-9.58-.5-3.03-.96-5.95-1.39-8.73l-1.95-12.61c.49-.18,1.22-.42,2.18-.73,.96-.3,2-.54,3.12-.72,2.28-.35,3.94-.21,4.97,.44,1.03,.65,1.71,1.98,2.02,4.01l6.17,39.96c-.62,.72-1.5,1.36-2.66,1.93Z"/>
        <path class="cls-5" d="M152.32,12.26l1.6,36.79c-.56,.18-1.34,.35-2.36,.53-1.02,.17-2.09,.28-3.22,.33-2.41,.11-4.11-.23-5.12-1.01-1.01-.78-1.56-2.24-1.65-4.39l-1.38-31.72-12.06,.53c-.33-.5-.65-1.15-.97-1.96-.32-.81-.5-1.7-.54-2.67-.08-1.74,.25-3.02,.99-3.85,.73-.83,1.76-1.27,3.1-1.33l33.56-1.46c.38,.5,.72,1.15,1.01,1.96,.29,.81,.46,1.7,.5,2.67,.07,1.69-.26,2.96-.99,3.81-.73,.85-1.76,1.31-3.09,1.37l-9.37,.41Z"/>
        <path class="cls-1" d="M194.01,35.07l-1.22,14.79c-.58,.11-1.38,.18-2.41,.23-1.03,.04-2.11,.02-3.23-.07-2.4-.2-4.04-.75-4.92-1.64-.88-.89-1.23-2.42-1.05-4.56l3.07-37.16c.08-1.02,.42-1.79,1-2.31,.58-.52,1.4-.89,2.44-1.11,.84-.24,1.8-.42,2.86-.54,1.06-.12,2.15-.21,3.26-.27,1.11-.06,2.22-.07,3.32-.03,1.1,.04,2.14,.1,3.11,.18,6.95,.57,12.09,2.48,15.42,5.71,3.33,3.23,4.79,7.4,4.37,12.51-.2,2.45-.84,4.65-1.89,6.59-1.06,1.94-2.49,3.56-4.3,4.85-1.8,1.29-3.95,2.22-6.44,2.78-2.49,.57-5.27,.72-8.33,.47l-5.06-.42Zm5.07-9.07c2.5,.21,4.54-.2,6.12-1.23,1.58-1.03,2.46-2.69,2.65-4.99,.38-4.55-2.14-7.04-7.56-7.49-.92-.08-1.73-.12-2.42-.12-.69,0-1.38,.02-2.05,.06l-1.11,13.41,4.37,.36Z"/>
        <path class="cls-1" d="M226.49,54.39c-2.38-.38-3.97-1.05-4.78-2.01-.81-.96-1.04-2.5-.7-4.63l6.58-41.07c.57-.01,1.39-.01,2.45,0,1.06,.01,2.12,.11,3.19,.28,2.28,.36,3.85,1.01,4.71,1.92,.87,.92,1.12,2.49,.76,4.72l-6.58,41.07c-.58,.06-1.39,.08-2.42,.04-1.03-.04-2.11-.14-3.22-.32Z"/>
        <path class="cls-1" d="M275.04,64.74c-1.29,.07-2.75-.1-4.39-.52-1.69-.43-3.21-1.11-4.56-2.03s-2.28-2.48-2.78-4.67l-4.4-18.89c-.44-1.8-.82-3.59-1.14-5.37-.32-1.77-.6-3.62-.85-5.53l-.56,.02c-.51,3.04-1.08,5.92-1.72,8.64-.64,2.72-1.28,5.35-1.92,7.88l-3.52,13.86c-.52-.03-1.28-.1-2.28-.22-1-.12-2.02-.32-3.06-.58-2.24-.57-3.7-1.35-4.4-2.35-.7-1-.8-2.49-.29-4.48l9.75-38.37c.81-.69,1.93-1.11,3.37-1.25,1.44-.14,2.9-.02,4.39,.36,1.74,.44,3.27,1.12,4.6,2.04,1.33,.92,2.25,2.45,2.76,4.59l4.46,18.98c.44,1.8,.82,3.59,1.13,5.36,.32,1.77,.6,3.62,.85,5.53h.32c.6-3.39,1.26-6.58,2-9.57,.73-2.99,1.45-5.85,2.14-8.58l3.14-12.37c.52,.03,1.29,.09,2.29,.19,1.01,.1,2.06,.28,3.15,.56,2.24,.57,3.7,1.35,4.4,2.35,.7,1,.79,2.49,.29,4.48l-9.96,39.19c-.85,.42-1.91,.66-3.2,.73Z"/>
        <path class="cls-1" d="M291.69,71.13c-1.01-.24-2.04-.57-3.08-.99-2.24-.9-3.64-1.91-4.2-3.05-.57-1.14-.45-2.71,.35-4.7l15.47-38.61c.56,.12,1.36,.3,2.39,.54,1.03,.25,2.02,.56,2.98,.94,2.14,.86,3.54,1.83,4.21,2.93,.67,1.09,.58,2.69-.26,4.78l-5.15,12.84,22.92-11.52c2.85,1.14,4.69,2.5,5.49,4.06,.81,1.57,.91,3.11,.3,4.63-.46,1.14-1.16,2.09-2.09,2.85-.94,.76-2.27,1.5-4.01,2.25l-14.19,6.07c1.85,4.88,3.54,9.26,5.05,13.12,1.52,3.87,2.79,7,3.81,9.4-.79,1.84-2,3.04-3.64,3.6s-3.26,.52-4.88-.13c-1.76-.71-3.02-1.72-3.79-3.05-.77-1.33-1.43-2.8-2-4.4l-6.47-18.16-6.83,17.06c-.58-.07-1.38-.22-2.38-.46Z"/>
      </g>
    </g>
  </g>
</svg>