<?xml version="1.0" encoding="UTF-8"?>
<svg id="_레이어_2" data-name="레이어 2" xmlns="http://www.w3.org/2000/svg" viewBox="0 0 402.09 107.39">
  <defs>
    <style>
      .cls-1 {
        letter-spacing: -.05em;
      }

      .cls-1, .cls-2, .cls-3 {
        stroke-miterlimit: 10;
      }

      .cls-1, .cls-2, .cls-3, .cls-4, .cls-5, .cls-6, .cls-7 {
        stroke-width: 2px;
      }

      .cls-1, .cls-2, .cls-4, .cls-7 {
        stroke: #a5106d;
      }

      .cls-1, .cls-2, .cls-7 {
        fill: #f06595;
      }

      .cls-1, .cls-3 {
        font-family: Baloo2-Bold, 'Baloo 2';
        font-size: 72px;
        font-weight: 700;
      }

      .cls-2, .cls-4, .cls-5, .cls-6, .cls-7 {
        stroke-linecap: round;
      }

      .cls-3 {
        letter-spacing: -.05em;
      }

      .cls-3, .cls-5 {
        fill: #36dcca;
      }

      .cls-3, .cls-5, .cls-6 {
        stroke: #068a71;
      }

      .cls-4, .cls-5, .cls-6, .cls-7 {
        stroke-linejoin: round;
      }

      .cls-4, .cls-6 {
        fill: #fff;
      }
    </style>
  </defs>
  <g id="_레이어_1-2" data-name="레이어 1">
    <g>
      <g>
        <path class="cls-6" d="M174.18,75.17v21.62c0,4.29,3.48,7.77,7.77,7.77h0c4.29,0,7.77-3.48,7.77-7.77v-21.62"/>
        <path class="cls-5" d="M160.82,21.39c.4-11.33,9.71-20.39,21.13-20.39,11.43,0,20.73,9.06,21.13,20.39h.02s0,42.97,0,42.97c0,5.97-4.84,10.81-10.81,10.81h-21.52c-5.51,0-9.98-4.47-9.98-9.98V21.39s.02,0,.02,0Z"/>
        <g>
          <path class="cls-5" d="M184.53,50.91v10.03c0,2.97,2.43,5.4,5.4,5.4h0c2.97,0,5.4-2.43,5.4-5.4v-23.13"/>
          <path class="cls-5" d="M195.34,28.15v-8.77c0-2.97-2.43-5.4-5.4-5.4h0c-2.97,0-5.4,2.43-5.4,5.4v23.96"/>
          <g>
            <path class="cls-5" d="M168.57,56.72v4.22c0,2.97,2.43,5.4,5.4,5.4h0c2.97,0,5.4-2.43,5.4-5.4V28.31"/>
            <path class="cls-5" d="M179.37,22.58v-3.2c0-2.97-2.43-5.4-5.4-5.4h0c-2.97,0-5.4,2.43-5.4,5.4v28.75"/>
          </g>
        </g>
      </g>
      <g>
        <path class="cls-4" d="M239.57,75.17v21.62c0,4.29-3.48,7.77-7.77,7.77h0c-4.29,0-7.77-3.48-7.77-7.77v-21.62"/>
        <path class="cls-7" d="M252.93,21.39c-.4-11.33-9.71-20.39-21.13-20.39-11.43,0-20.73,9.06-21.13,20.39h-.02s0,42.97,0,42.97c0,5.97,4.84,10.81,10.81,10.81h21.52c5.51,0,9.98-4.47,9.98-9.98V21.39s-.02,0-.02,0Z"/>
        <g>
          <path class="cls-2" d="M229.22,50.91v10.03c0,2.97-2.43,5.4-5.4,5.4h0c-2.97,0-5.4-2.43-5.4-5.4v-23.13"/>
          <path class="cls-2" d="M218.41,28.15v-8.77c0-2.97,2.43-5.4,5.4-5.4h0c2.97,0,5.4,2.43,5.4,5.4v23.96"/>
          <g>
            <path class="cls-2" d="M245.18,56.72v4.22c0,2.97-2.43,5.4-5.4,5.4h0c-2.97,0-5.4-2.43-5.4-5.4V28.31"/>
            <path class="cls-2" d="M234.38,22.58v-3.2c0-2.97,2.43-5.4,5.4-5.4h0c2.97,0,5.4,2.43,5.4,5.4v28.75"/>
          </g>
        </g>
      </g>
      <text class="cls-3" transform="translate(1 69.6)"><tspan x="0" y="0">mint</tspan></text>
      <text class="cls-1" transform="translate(272 69.42)"><tspan x="0" y="0">pink</tspan></text>
    </g>
  </g>
</svg>